<svg width="50" height="50" viewBox="0 0 50 50" fill="none" xmlns="http://www.w3.org/2000/svg">
<rect width="50" height="50" rx="10" fill="#003578"/>
<path d="M13.6641 35.6172C13.2109 35.6172 12.7656 35.5234 12.3281 35.3359C11.8906 35.1641 11.5 34.9141 11.1562 34.5859C10.8125 34.2578 10.5391 33.8516 10.3359 33.3672C10.1328 32.8984 10.0469 32.3594 10.0781 31.75C10.125 30.6875 10.3359 29.7031 10.7109 28.7969C11.0859 27.8906 11.5234 27.1094 12.0234 26.4531C12.5234 25.7969 13.0312 25.2891 13.5469 24.9297C14.0625 24.5547 14.4922 24.3672 14.8359 24.3672C15.0547 24.3672 15.25 24.4453 15.4219 24.6016C15.6094 24.7422 15.75 24.9297 15.8438 25.1641C15.9531 25.3828 16.0156 25.6328 16.0312 25.9141C16.0625 26.1797 16.0312 26.4375 15.9375 26.6875C15.7812 26.5781 15.4922 26.6172 15.0703 26.8047C14.6484 26.9922 14.2109 27.3125 13.7578 27.7656C13.3047 28.2031 12.8984 28.75 12.5391 29.4062C12.1797 30.0625 11.9766 30.7969 11.9297 31.6094C11.8984 32.1406 11.9219 32.5938 12 32.9688C12.0938 33.3438 12.2188 33.6484 12.375 33.8828C12.5469 34.1172 12.7344 34.2891 12.9375 34.3984C13.1562 34.5078 13.3828 34.5625 13.6172 34.5625C14.1797 34.5625 14.6953 34.3516 15.1641 33.9297C15.6328 33.5078 16.0625 32.9141 16.4531 32.1484C16.8438 31.3984 17.2109 30.5 17.5547 29.4531C17.8984 28.3906 18.2266 27.2188 18.5391 25.9375C18.6328 25.5469 18.75 25.0625 18.8906 24.4844C19.0469 23.9062 19.2109 23.2812 19.3828 22.6094C19.5547 21.9219 19.7344 21.2188 19.9219 20.5C20.125 19.7656 20.3125 19.0703 20.4844 18.4141C20.6562 17.7422 20.8203 17.125 20.9766 16.5625C21.1328 15.9844 21.2578 15.5156 21.3516 15.1562C20.8359 15.1562 20.3203 15.1875 19.8047 15.25C19.3672 15.2969 18.9141 15.3672 18.4453 15.4609C17.9766 15.5391 17.5859 15.6484 17.2734 15.7891C17.2422 15.7734 17.2188 15.7344 17.2031 15.6719C17.1875 15.5938 17.1719 15.5156 17.1562 15.4375C17.1406 15.3438 17.125 15.2422 17.1094 15.1328C17.0938 15.0078 17.0938 14.8828 17.1094 14.7578C17.125 14.6484 17.1406 14.5312 17.1562 14.4062C17.1719 14.2656 17.2031 14.125 17.25 13.9844C17.6562 13.8594 18.125 13.7656 18.6562 13.7031C19.2031 13.625 19.7109 13.5703 20.1797 13.5391C20.7266 13.4922 21.2891 13.4688 21.8672 13.4688C22.2891 13.4688 22.7266 13.4922 23.1797 13.5391C23.5703 13.5703 24.0078 13.6172 24.4922 13.6797C24.9766 13.7422 25.4609 13.8359 25.9453 13.9609C26.0547 14.0703 26.125 14.1953 26.1562 14.3359C26.1719 14.3984 26.1797 14.4688 26.1797 14.5469C26.1797 14.6719 26.1562 14.7891 26.1094 14.8984C26.0781 14.9922 26.0234 15.0938 25.9453 15.2031C25.8828 15.2969 25.7969 15.375 25.6875 15.4375C25.5156 15.3906 25.2969 15.3594 25.0312 15.3438C24.7812 15.3125 24.5312 15.2812 24.2812 15.25C24 15.2188 23.7031 15.1953 23.3906 15.1797L20.9062 26.2422C20.8438 26.5078 20.7344 26.9297 20.5781 27.5078C20.4219 28.0703 20.2031 28.7031 19.9219 29.4062C19.6562 30.0938 19.3281 30.8047 18.9375 31.5391C18.5625 32.2734 18.1172 32.9375 17.6016 33.5312C17.0859 34.1406 16.5 34.6406 15.8438 35.0312C15.1875 35.4219 14.4609 35.6172 13.6641 35.6172ZM36.5625 28.7969C36.4688 29.8438 36.1562 30.7812 35.625 31.6094C35.0938 32.4375 34.4141 33.1328 33.5859 33.6953C32.7734 34.2734 31.8516 34.7109 30.8203 35.0078C29.7891 35.3047 28.7266 35.4531 27.6328 35.4531C27.2266 35.4531 26.8438 35.4219 26.4844 35.3594C26.1406 35.3125 25.8281 35.25 25.5469 35.1719C25.2656 35.0938 25.0234 35.0156 24.8203 34.9375C24.6328 34.875 24.5 34.8203 24.4219 34.7734C24.2812 34.6953 24.1641 34.5938 24.0703 34.4688C23.9922 34.3594 23.9453 34.1953 23.9297 33.9766C23.9141 33.8516 23.9062 33.75 23.9062 33.6719C23.9062 33.6094 23.9141 33.5391 23.9297 33.4609C23.9453 33.3828 23.9766 33.2734 24.0234 33.1328C24.0547 33.0078 24.1016 32.8281 24.1641 32.5938C24.1953 32.4531 24.3125 32.0078 24.5156 31.2578C24.7344 30.5234 24.9922 29.625 25.2891 28.5625C25.5859 27.4844 25.9062 26.3203 26.25 25.0703C26.6094 23.8203 26.9531 22.6094 27.2812 21.4375C27.6094 20.2656 27.9062 19.2109 28.1719 18.2734C28.4375 17.3203 28.6328 16.6172 28.7578 16.1641C28.5391 16.3203 28.3203 16.4844 28.1016 16.6562C27.8984 16.8281 27.6875 17.0156 27.4688 17.2188C27.2344 17.4375 27 17.5156 26.7656 17.4531C26.5469 17.375 26.3906 17.1797 26.2969 16.8672C26.2656 16.7109 26.2422 16.5469 26.2266 16.375C26.2109 16.2344 26.2109 16.0781 26.2266 15.9062C26.2578 15.7188 26.3203 15.5391 26.4141 15.3672C26.9297 15.0547 27.4297 14.7891 27.9141 14.5703C28.4141 14.3516 28.8906 14.1562 29.3438 13.9844C29.4375 13.7188 29.5391 13.5156 29.6484 13.375C29.7734 13.2344 29.8984 13.1406 30.0234 13.0938C30.1484 13.0469 30.2812 13.0312 30.4219 13.0469C30.5625 13.0625 30.7109 13.0859 30.8672 13.1172C31.2109 13.1953 31.4375 13.3047 31.5469 13.4453C31.7656 13.4141 31.9766 13.3906 32.1797 13.375C32.3828 13.3594 32.5938 13.3516 32.8125 13.3516C33.7188 13.3516 34.5078 13.4688 35.1797 13.7031C35.8516 13.9375 36.3984 14.2578 36.8203 14.6641C37.2578 15.0547 37.5703 15.5156 37.7578 16.0469C37.9453 16.5781 38.0156 17.1406 37.9688 17.7344C37.9219 18.25 37.7812 18.7891 37.5469 19.3516C37.3281 19.8984 37.0312 20.4453 36.6562 20.9922C36.2812 21.5234 35.8438 22.0469 35.3438 22.5625C34.8438 23.0625 34.2891 23.5234 33.6797 23.9453C34.1641 24.2266 34.5938 24.5547 34.9688 24.9297C35.3438 25.3047 35.6562 25.7109 35.9062 26.1484C36.1562 26.5859 36.3359 27.0312 36.4453 27.4844C36.5547 27.9375 36.5938 28.375 36.5625 28.7969ZM28.8047 23.0547C28.7734 23.2109 28.7344 23.3672 28.6875 23.5234C28.6562 23.6797 28.6172 23.8438 28.5703 24.0156C28.7578 23.8125 29.0703 23.625 29.5078 23.4531C29.9609 23.2812 30.3906 23.1953 30.7969 23.1953C31.0156 23.1953 31.2266 23.2109 31.4297 23.2422C31.6328 23.2578 31.8281 23.2812 32.0156 23.3125C32.4531 23.0312 32.875 22.6719 33.2812 22.2344C33.6875 21.7812 34.0391 21.3047 34.3359 20.8047C34.6484 20.2891 34.8984 19.7656 35.0859 19.2344C35.2891 18.7031 35.4141 18.2109 35.4609 17.7578C35.5547 16.6797 35.3672 15.8828 34.8984 15.3672C34.4453 14.8359 33.7969 14.5703 32.9531 14.5703C32.3906 14.5703 31.8047 14.6719 31.1953 14.875C31.0703 15.2812 30.9141 15.7891 30.7266 16.3984C30.5391 16.9922 30.3359 17.6484 30.1172 18.3672C29.9141 19.0859 29.6953 19.8438 29.4609 20.6406C29.2266 21.4375 29.0078 22.2422 28.8047 23.0547ZM28.4062 24.6016C28.1875 25.4453 27.9688 26.3594 27.75 27.3438C27.5469 28.1875 27.3281 29.1719 27.0938 30.2969C26.8594 31.4062 26.6094 32.5938 26.3438 33.8594C26.4375 33.9375 26.5625 33.9922 26.7188 34.0234C26.875 34.0547 27.0312 34.0859 27.1875 34.1172C27.3594 34.1484 27.5469 34.1641 27.75 34.1641C28.4531 34.1641 29.1641 34.0156 29.8828 33.7188C30.6172 33.4375 31.2891 33.0312 31.8984 32.5C32.5078 31.9688 33.0156 31.3281 33.4219 30.5781C33.8438 29.8125 34.0938 28.9609 34.1719 28.0234C34.2031 27.6016 34.1719 27.2266 34.0781 26.8984C34 26.5547 33.875 26.25 33.7031 25.9844C33.5469 25.7031 33.3594 25.4609 33.1406 25.2578C32.9375 25.0391 32.7188 24.8516 32.4844 24.6953C31.7656 25.0859 30.9766 25.4141 30.1172 25.6797C29.8359 25.7578 29.5938 25.7734 29.3906 25.7266C29.1875 25.6641 29.0156 25.5781 28.875 25.4688C28.7344 25.3438 28.625 25.2031 28.5469 25.0469C28.4688 24.8906 28.4219 24.7422 28.4062 24.6016Z" fill="white"/>
</svg>
