<svg width="162" height="50" viewBox="0 0 162 50" fill="none" xmlns="http://www.w3.org/2000/svg">
<rect width="50" height="50" rx="10" fill="white"/>
<path d="M13.6641 35.6172C13.2109 35.6172 12.7656 35.5234 12.3281 35.3359C11.8906 35.1641 11.5 34.9141 11.1562 34.5859C10.8125 34.2578 10.5391 33.8516 10.3359 33.3672C10.1328 32.8984 10.0469 32.3594 10.0781 31.75C10.125 30.6875 10.3359 29.7031 10.7109 28.7969C11.0859 27.8906 11.5234 27.1094 12.0234 26.4531C12.5234 25.7969 13.0312 25.2891 13.5469 24.9297C14.0625 24.5547 14.4922 24.3672 14.8359 24.3672C15.0547 24.3672 15.25 24.4453 15.4219 24.6016C15.6094 24.7422 15.75 24.9297 15.8438 25.1641C15.9531 25.3828 16.0156 25.6328 16.0312 25.9141C16.0625 26.1797 16.0312 26.4375 15.9375 26.6875C15.7812 26.5781 15.4922 26.6172 15.0703 26.8047C14.6484 26.9922 14.2109 27.3125 13.7578 27.7656C13.3047 28.2031 12.8984 28.75 12.5391 29.4062C12.1797 30.0625 11.9766 30.7969 11.9297 31.6094C11.8984 32.1406 11.9219 32.5938 12 32.9688C12.0938 33.3438 12.2188 33.6484 12.375 33.8828C12.5469 34.1172 12.7344 34.2891 12.9375 34.3984C13.1562 34.5078 13.3828 34.5625 13.6172 34.5625C14.1797 34.5625 14.6953 34.3516 15.1641 33.9297C15.6328 33.5078 16.0625 32.9141 16.4531 32.1484C16.8438 31.3984 17.2109 30.5 17.5547 29.4531C17.8984 28.3906 18.2266 27.2188 18.5391 25.9375C18.6328 25.5469 18.75 25.0625 18.8906 24.4844C19.0469 23.9062 19.2109 23.2812 19.3828 22.6094C19.5547 21.9219 19.7344 21.2188 19.9219 20.5C20.125 19.7656 20.3125 19.0703 20.4844 18.4141C20.6562 17.7422 20.8203 17.125 20.9766 16.5625C21.1328 15.9844 21.2578 15.5156 21.3516 15.1562C20.8359 15.1562 20.3203 15.1875 19.8047 15.25C19.3672 15.2969 18.9141 15.3672 18.4453 15.4609C17.9766 15.5391 17.5859 15.6484 17.2734 15.7891C17.2422 15.7734 17.2188 15.7344 17.2031 15.6719C17.1875 15.5938 17.1719 15.5156 17.1562 15.4375C17.1406 15.3438 17.125 15.2422 17.1094 15.1328C17.0938 15.0078 17.0938 14.8828 17.1094 14.7578C17.125 14.6484 17.1406 14.5312 17.1562 14.4062C17.1719 14.2656 17.2031 14.125 17.25 13.9844C17.6562 13.8594 18.125 13.7656 18.6562 13.7031C19.2031 13.625 19.7109 13.5703 20.1797 13.5391C20.7266 13.4922 21.2891 13.4688 21.8672 13.4688C22.2891 13.4688 22.7266 13.4922 23.1797 13.5391C23.5703 13.5703 24.0078 13.6172 24.4922 13.6797C24.9766 13.7422 25.4609 13.8359 25.9453 13.9609C26.0547 14.0703 26.125 14.1953 26.1562 14.3359C26.1719 14.3984 26.1797 14.4688 26.1797 14.5469C26.1797 14.6719 26.1562 14.7891 26.1094 14.8984C26.0781 14.9922 26.0234 15.0938 25.9453 15.2031C25.8828 15.2969 25.7969 15.375 25.6875 15.4375C25.5156 15.3906 25.2969 15.3594 25.0312 15.3438C24.7812 15.3125 24.5312 15.2812 24.2812 15.25C24 15.2188 23.7031 15.1953 23.3906 15.1797L20.9062 26.2422C20.8438 26.5078 20.7344 26.9297 20.5781 27.5078C20.4219 28.0703 20.2031 28.7031 19.9219 29.4062C19.6562 30.0938 19.3281 30.8047 18.9375 31.5391C18.5625 32.2734 18.1172 32.9375 17.6016 33.5312C17.0859 34.1406 16.5 34.6406 15.8438 35.0312C15.1875 35.4219 14.4609 35.6172 13.6641 35.6172ZM36.5625 28.7969C36.4688 29.8438 36.1562 30.7812 35.625 31.6094C35.0938 32.4375 34.4141 33.1328 33.5859 33.6953C32.7734 34.2734 31.8516 34.7109 30.8203 35.0078C29.7891 35.3047 28.7266 35.4531 27.6328 35.4531C27.2266 35.4531 26.8438 35.4219 26.4844 35.3594C26.1406 35.3125 25.8281 35.25 25.5469 35.1719C25.2656 35.0938 25.0234 35.0156 24.8203 34.9375C24.6328 34.875 24.5 34.8203 24.4219 34.7734C24.2812 34.6953 24.1641 34.5938 24.0703 34.4688C23.9922 34.3594 23.9453 34.1953 23.9297 33.9766C23.9141 33.8516 23.9062 33.75 23.9062 33.6719C23.9062 33.6094 23.9141 33.5391 23.9297 33.4609C23.9453 33.3828 23.9766 33.2734 24.0234 33.1328C24.0547 33.0078 24.1016 32.8281 24.1641 32.5938C24.1953 32.4531 24.3125 32.0078 24.5156 31.2578C24.7344 30.5234 24.9922 29.625 25.2891 28.5625C25.5859 27.4844 25.9062 26.3203 26.25 25.0703C26.6094 23.8203 26.9531 22.6094 27.2812 21.4375C27.6094 20.2656 27.9062 19.2109 28.1719 18.2734C28.4375 17.3203 28.6328 16.6172 28.7578 16.1641C28.5391 16.3203 28.3203 16.4844 28.1016 16.6562C27.8984 16.8281 27.6875 17.0156 27.4688 17.2188C27.2344 17.4375 27 17.5156 26.7656 17.4531C26.5469 17.375 26.3906 17.1797 26.2969 16.8672C26.2656 16.7109 26.2422 16.5469 26.2266 16.375C26.2109 16.2344 26.2109 16.0781 26.2266 15.9062C26.2578 15.7188 26.3203 15.5391 26.4141 15.3672C26.9297 15.0547 27.4297 14.7891 27.9141 14.5703C28.4141 14.3516 28.8906 14.1562 29.3438 13.9844C29.4375 13.7188 29.5391 13.5156 29.6484 13.375C29.7734 13.2344 29.8984 13.1406 30.0234 13.0938C30.1484 13.0469 30.2812 13.0312 30.4219 13.0469C30.5625 13.0625 30.7109 13.0859 30.8672 13.1172C31.2109 13.1953 31.4375 13.3047 31.5469 13.4453C31.7656 13.4141 31.9766 13.3906 32.1797 13.375C32.3828 13.3594 32.5938 13.3516 32.8125 13.3516C33.7188 13.3516 34.5078 13.4688 35.1797 13.7031C35.8516 13.9375 36.3984 14.2578 36.8203 14.6641C37.2578 15.0547 37.5703 15.5156 37.7578 16.0469C37.9453 16.5781 38.0156 17.1406 37.9688 17.7344C37.9219 18.25 37.7812 18.7891 37.5469 19.3516C37.3281 19.8984 37.0312 20.4453 36.6562 20.9922C36.2812 21.5234 35.8438 22.0469 35.3438 22.5625C34.8438 23.0625 34.2891 23.5234 33.6797 23.9453C34.1641 24.2266 34.5938 24.5547 34.9688 24.9297C35.3438 25.3047 35.6562 25.7109 35.9062 26.1484C36.1562 26.5859 36.3359 27.0312 36.4453 27.4844C36.5547 27.9375 36.5938 28.375 36.5625 28.7969ZM28.8047 23.0547C28.7734 23.2109 28.7344 23.3672 28.6875 23.5234C28.6562 23.6797 28.6172 23.8438 28.5703 24.0156C28.7578 23.8125 29.0703 23.625 29.5078 23.4531C29.9609 23.2812 30.3906 23.1953 30.7969 23.1953C31.0156 23.1953 31.2266 23.2109 31.4297 23.2422C31.6328 23.2578 31.8281 23.2812 32.0156 23.3125C32.4531 23.0312 32.875 22.6719 33.2812 22.2344C33.6875 21.7812 34.0391 21.3047 34.3359 20.8047C34.6484 20.2891 34.8984 19.7656 35.0859 19.2344C35.2891 18.7031 35.4141 18.2109 35.4609 17.7578C35.5547 16.6797 35.3672 15.8828 34.8984 15.3672C34.4453 14.8359 33.7969 14.5703 32.9531 14.5703C32.3906 14.5703 31.8047 14.6719 31.1953 14.875C31.0703 15.2812 30.9141 15.7891 30.7266 16.3984C30.5391 16.9922 30.3359 17.6484 30.1172 18.3672C29.9141 19.0859 29.6953 19.8438 29.4609 20.6406C29.2266 21.4375 29.0078 22.2422 28.8047 23.0547ZM28.4062 24.6016C28.1875 25.4453 27.9688 26.3594 27.75 27.3438C27.5469 28.1875 27.3281 29.1719 27.0938 30.2969C26.8594 31.4062 26.6094 32.5938 26.3438 33.8594C26.4375 33.9375 26.5625 33.9922 26.7188 34.0234C26.875 34.0547 27.0312 34.0859 27.1875 34.1172C27.3594 34.1484 27.5469 34.1641 27.75 34.1641C28.4531 34.1641 29.1641 34.0156 29.8828 33.7188C30.6172 33.4375 31.2891 33.0312 31.8984 32.5C32.5078 31.9688 33.0156 31.3281 33.4219 30.5781C33.8438 29.8125 34.0938 28.9609 34.1719 28.0234C34.2031 27.6016 34.1719 27.2266 34.0781 26.8984C34 26.5547 33.875 26.25 33.7031 25.9844C33.5469 25.7031 33.3594 25.4609 33.1406 25.2578C32.9375 25.0391 32.7188 24.8516 32.4844 24.6953C31.7656 25.0859 30.9766 25.4141 30.1172 25.6797C29.8359 25.7578 29.5938 25.7734 29.3906 25.7266C29.1875 25.6641 29.0156 25.5781 28.875 25.4688C28.7344 25.3438 28.625 25.2031 28.5469 25.0469C28.4688 24.8906 28.4219 24.7422 28.4062 24.6016Z" fill="#404040"/>
<path d="M69.6641 35.6172C69.2109 35.6172 68.7656 35.5234 68.3281 35.3359C67.8906 35.1641 67.5 34.9141 67.1562 34.5859C66.8125 34.2578 66.5391 33.8516 66.3359 33.3672C66.1328 32.8984 66.0469 32.3594 66.0781 31.75C66.125 30.6875 66.3359 29.7031 66.7109 28.7969C67.0859 27.8906 67.5234 27.1094 68.0234 26.4531C68.5234 25.7969 69.0312 25.2891 69.5469 24.9297C70.0625 24.5547 70.4922 24.3672 70.8359 24.3672C71.0547 24.3672 71.25 24.4453 71.4219 24.6016C71.6094 24.7422 71.75 24.9297 71.8438 25.1641C71.9531 25.3828 72.0156 25.6328 72.0312 25.9141C72.0625 26.1797 72.0312 26.4375 71.9375 26.6875C71.7812 26.5781 71.4922 26.6172 71.0703 26.8047C70.6484 26.9922 70.2109 27.3125 69.7578 27.7656C69.3047 28.2031 68.8984 28.75 68.5391 29.4062C68.1797 30.0625 67.9766 30.7969 67.9297 31.6094C67.8984 32.1406 67.9219 32.5938 68 32.9688C68.0938 33.3438 68.2188 33.6484 68.375 33.8828C68.5469 34.1172 68.7344 34.2891 68.9375 34.3984C69.1562 34.5078 69.3828 34.5625 69.6172 34.5625C70.1797 34.5625 70.6953 34.3516 71.1641 33.9297C71.6328 33.5078 72.0625 32.9141 72.4531 32.1484C72.8438 31.3984 73.2109 30.5 73.5547 29.4531C73.8984 28.3906 74.2266 27.2188 74.5391 25.9375C74.6328 25.5469 74.75 25.0625 74.8906 24.4844C75.0469 23.9062 75.2109 23.2812 75.3828 22.6094C75.5547 21.9219 75.7344 21.2188 75.9219 20.5C76.125 19.7656 76.3125 19.0703 76.4844 18.4141C76.6562 17.7422 76.8203 17.125 76.9766 16.5625C77.1328 15.9844 77.2578 15.5156 77.3516 15.1562C76.8359 15.1562 76.3203 15.1875 75.8047 15.25C75.3672 15.2969 74.9141 15.3672 74.4453 15.4609C73.9766 15.5391 73.5859 15.6484 73.2734 15.7891C73.2422 15.7734 73.2188 15.7344 73.2031 15.6719C73.1875 15.5938 73.1719 15.5156 73.1562 15.4375C73.1406 15.3438 73.125 15.2422 73.1094 15.1328C73.0938 15.0078 73.0938 14.8828 73.1094 14.7578C73.125 14.6484 73.1406 14.5312 73.1562 14.4062C73.1719 14.2656 73.2031 14.125 73.25 13.9844C73.6562 13.8594 74.125 13.7656 74.6562 13.7031C75.2031 13.625 75.7109 13.5703 76.1797 13.5391C76.7266 13.4922 77.2891 13.4688 77.8672 13.4688C78.2891 13.4688 78.7266 13.4922 79.1797 13.5391C79.5703 13.5703 80.0078 13.6172 80.4922 13.6797C80.9766 13.7422 81.4609 13.8359 81.9453 13.9609C82.0547 14.0703 82.125 14.1953 82.1562 14.3359C82.1719 14.3984 82.1797 14.4688 82.1797 14.5469C82.1797 14.6719 82.1562 14.7891 82.1094 14.8984C82.0781 14.9922 82.0234 15.0938 81.9453 15.2031C81.8828 15.2969 81.7969 15.375 81.6875 15.4375C81.5156 15.3906 81.2969 15.3594 81.0312 15.3438C80.7812 15.3125 80.5312 15.2812 80.2812 15.25C80 15.2188 79.7031 15.1953 79.3906 15.1797L76.9062 26.2422C76.8438 26.5078 76.7344 26.9297 76.5781 27.5078C76.4219 28.0703 76.2031 28.7031 75.9219 29.4062C75.6562 30.0938 75.3281 30.8047 74.9375 31.5391C74.5625 32.2734 74.1172 32.9375 73.6016 33.5312C73.0859 34.1406 72.5 34.6406 71.8438 35.0312C71.1875 35.4219 70.4609 35.6172 69.6641 35.6172ZM86.9609 27.2734C86.8047 27.8672 86.5938 28.4219 86.3281 28.9375C86.0625 29.4531 85.7422 29.8984 85.3672 30.2734C85.0078 30.6484 84.5938 30.9375 84.125 31.1406C83.6719 31.3594 83.1719 31.4688 82.625 31.4688C81.9844 31.4688 81.4766 31.3281 81.1016 31.0469C80.7422 30.7812 80.4688 30.4453 80.2812 30.0391C80.1094 29.6328 80.0078 29.1875 79.9766 28.7031C79.9297 28.2188 79.9062 27.7656 79.9062 27.3438C79.9062 27.0469 79.9453 26.7188 80.0234 26.3594C80.0859 26 80.1797 25.6328 80.3047 25.2578C80.4297 24.8828 80.5859 24.5078 80.7734 24.1328C80.9766 23.7578 81.2109 23.4141 81.4766 23.1016C81.5703 22.8359 81.7109 22.6016 81.8984 22.3984C82.1016 22.1953 82.3281 22.0312 82.5781 21.9062C82.8438 21.7656 83.125 21.6641 83.4219 21.6016C83.7188 21.5234 84.0078 21.4844 84.2891 21.4844C84.3359 21.4844 84.375 21.4922 84.4062 21.5078C84.4531 21.5234 84.5 21.5391 84.5469 21.5547C84.75 21.5703 85 21.6484 85.2969 21.7891C85.6094 21.9297 85.9062 22.1406 86.1875 22.4219C86.4844 22.7031 86.7344 23.0625 86.9375 23.5C87.1406 23.9219 87.2422 24.4375 87.2422 25.0469C87.2422 25.1719 87.2344 25.3281 87.2188 25.5156C87.2031 25.6875 87.1875 25.8359 87.1719 25.9609C87.5312 25.8203 87.9062 25.6484 88.2969 25.4453C88.6875 25.2422 89.0625 25.0312 89.4219 24.8125C89.7969 24.5781 90.1406 24.3438 90.4531 24.1094C90.7656 23.875 91.0156 23.6641 91.2031 23.4766C91.3594 23.3359 91.4922 23.2578 91.6016 23.2422C91.7109 23.2266 91.7891 23.2578 91.8359 23.3359C91.8828 23.4141 91.8906 23.5234 91.8594 23.6641C91.8281 23.8047 91.7422 23.9609 91.6016 24.1328C91.5234 24.2266 91.3203 24.4141 90.9922 24.6953C90.6797 24.9766 90.3047 25.2812 89.8672 25.6094C89.4297 25.9375 88.9531 26.2578 88.4375 26.5703C87.9219 26.8828 87.4297 27.1172 86.9609 27.2734ZM83 23.7109C82.9531 23.8516 82.9297 24 82.9297 24.1562C82.9297 24.4062 82.9453 24.6719 82.9766 24.9531C83.0078 25.2188 83.0859 25.4609 83.2109 25.6797C83.3359 25.8984 83.5312 26.0859 83.7969 26.2422C84.0781 26.3828 84.4609 26.4531 84.9453 26.4531C85.0234 26.4531 85.1016 26.4531 85.1797 26.4531C85.2578 26.4375 85.3359 26.4219 85.4141 26.4062C85.4609 26.2031 85.5 26.0234 85.5312 25.8672C85.5781 25.6953 85.6016 25.5469 85.6016 25.4219C85.6328 25.125 85.6328 24.8203 85.6016 24.5078C85.5703 24.1953 85.5078 23.9141 85.4141 23.6641C85.3359 23.3984 85.2266 23.1875 85.0859 23.0312C84.9609 22.8594 84.8047 22.7734 84.6172 22.7734C84.3203 22.7734 84.0312 22.8594 83.75 23.0312C83.4844 23.1875 83.2344 23.4141 83 23.7109ZM81.5 27.8359C81.5 28.1172 81.5156 28.3984 81.5469 28.6797C81.5781 28.9453 81.6406 29.1875 81.7344 29.4062C81.8281 29.6094 81.9531 29.7812 82.1094 29.9219C82.2656 30.0469 82.4688 30.1094 82.7188 30.1094C83 30.1094 83.2578 30.0469 83.4922 29.9219C83.7266 29.7812 83.9375 29.6094 84.125 29.4062C84.3125 29.1875 84.4766 28.9453 84.6172 28.6797C84.7734 28.3984 84.9062 28.1094 85.0156 27.8125C84.9062 27.8281 84.7969 27.8438 84.6875 27.8594C84.5938 27.8594 84.4844 27.8594 84.3594 27.8594C83.7656 27.8594 83.25 27.6875 82.8125 27.3438C82.3906 26.9844 82.0625 26.5312 81.8281 25.9844C81.7344 26.3125 81.6562 26.6328 81.5938 26.9453C81.5312 27.2578 81.5 27.5547 81.5 27.8359ZM100.086 26.125C99.6172 26.8125 99.0859 27.4844 98.4922 28.1406C97.8984 28.7812 97.2656 29.3594 96.5938 29.875C95.9375 30.375 95.2578 30.7812 94.5547 31.0938C93.8672 31.4062 93.1953 31.5625 92.5391 31.5625C92.1953 31.5625 91.8203 31.4766 91.4141 31.3047C91.0234 31.1484 90.6641 30.8984 90.3359 30.5547C90.0078 30.2109 89.7422 29.7656 89.5391 29.2188C89.3516 28.6719 89.2969 28.0078 89.375 27.2266C89.4375 26.5859 89.6328 25.9141 89.9609 25.2109C90.3047 24.4922 90.7188 23.8359 91.2031 23.2422C91.7031 22.6484 92.2578 22.1562 92.8672 21.7656C93.4922 21.375 94.1172 21.1797 94.7422 21.1797C95.3359 21.1797 95.7656 21.3281 96.0312 21.625C96.2969 21.9219 96.4141 22.2891 96.3828 22.7266C96.3359 23.2109 96.1953 23.6562 95.9609 24.0625C95.7422 24.4688 95.4766 24.8359 95.1641 25.1641C94.8516 25.4922 94.5156 25.7891 94.1562 26.0547C93.8125 26.3203 93.4844 26.5625 93.1719 26.7812C92.8281 27.0156 92.5 27.2422 92.1875 27.4609C91.875 27.6641 91.6016 27.8516 91.3672 28.0234C91.3828 28.4141 91.4531 28.7422 91.5781 29.0078C91.7031 29.2734 91.8594 29.4922 92.0469 29.6641C92.2344 29.8203 92.4453 29.9375 92.6797 30.0156C92.9297 30.0781 93.1797 30.1094 93.4297 30.1094C93.9609 30.1094 94.5156 29.9453 95.0938 29.6172C95.6719 29.2734 96.2344 28.8672 96.7812 28.3984C97.3438 27.9141 97.8594 27.4141 98.3281 26.8984C98.8125 26.3828 99.2109 25.9375 99.5234 25.5625C99.6328 25.4375 99.7422 25.3672 99.8516 25.3516C99.9766 25.3203 100.07 25.3359 100.133 25.3984C100.211 25.4453 100.25 25.5391 100.25 25.6797C100.25 25.8047 100.195 25.9531 100.086 26.125ZM94.0859 22.5156C93.8984 22.5156 93.6719 22.6094 93.4062 22.7969C93.1562 22.9844 92.9062 23.2578 92.6562 23.6172C92.4062 23.9609 92.1719 24.3906 91.9531 24.9062C91.7344 25.4062 91.5703 25.9844 91.4609 26.6406C91.6484 26.5 91.8516 26.3594 92.0703 26.2188C92.2891 26.0625 92.5078 25.8984 92.7266 25.7266C93.3984 25.2109 93.8672 24.7578 94.1328 24.3672C94.3984 23.9766 94.5469 23.6406 94.5781 23.3594C94.6094 23.0625 94.5781 22.8516 94.4844 22.7266C94.3906 22.5859 94.2578 22.5156 94.0859 22.5156ZM117.664 28.7969C117.57 29.8438 117.258 30.7812 116.727 31.6094C116.195 32.4375 115.516 33.1328 114.688 33.6953C113.875 34.2734 112.953 34.7109 111.922 35.0078C110.891 35.3047 109.828 35.4531 108.734 35.4531C108.328 35.4531 107.945 35.4219 107.586 35.3594C107.242 35.3125 106.93 35.25 106.648 35.1719C106.367 35.0938 106.125 35.0156 105.922 34.9375C105.734 34.875 105.602 34.8203 105.523 34.7734C105.383 34.6953 105.266 34.5938 105.172 34.4688C105.094 34.3594 105.047 34.1953 105.031 33.9766C105.016 33.8516 105.008 33.75 105.008 33.6719C105.008 33.6094 105.016 33.5391 105.031 33.4609C105.047 33.3828 105.078 33.2734 105.125 33.1328C105.156 33.0078 105.203 32.8281 105.266 32.5938C105.297 32.4531 105.414 32.0078 105.617 31.2578C105.836 30.5234 106.094 29.625 106.391 28.5625C106.688 27.4844 107.008 26.3203 107.352 25.0703C107.711 23.8203 108.055 22.6094 108.383 21.4375C108.711 20.2656 109.008 19.2109 109.273 18.2734C109.539 17.3203 109.734 16.6172 109.859 16.1641C109.641 16.3203 109.422 16.4844 109.203 16.6562C109 16.8281 108.789 17.0156 108.57 17.2188C108.336 17.4375 108.102 17.5156 107.867 17.4531C107.648 17.375 107.492 17.1797 107.398 16.8672C107.367 16.7109 107.344 16.5469 107.328 16.375C107.312 16.2344 107.312 16.0781 107.328 15.9062C107.359 15.7188 107.422 15.5391 107.516 15.3672C108.031 15.0547 108.531 14.7891 109.016 14.5703C109.516 14.3516 109.992 14.1562 110.445 13.9844C110.539 13.7188 110.641 13.5156 110.75 13.375C110.875 13.2344 111 13.1406 111.125 13.0938C111.25 13.0469 111.383 13.0312 111.523 13.0469C111.664 13.0625 111.812 13.0859 111.969 13.1172C112.312 13.1953 112.539 13.3047 112.648 13.4453C112.867 13.4141 113.078 13.3906 113.281 13.375C113.484 13.3594 113.695 13.3516 113.914 13.3516C114.82 13.3516 115.609 13.4688 116.281 13.7031C116.953 13.9375 117.5 14.2578 117.922 14.6641C118.359 15.0547 118.672 15.5156 118.859 16.0469C119.047 16.5781 119.117 17.1406 119.07 17.7344C119.023 18.25 118.883 18.7891 118.648 19.3516C118.43 19.8984 118.133 20.4453 117.758 20.9922C117.383 21.5234 116.945 22.0469 116.445 22.5625C115.945 23.0625 115.391 23.5234 114.781 23.9453C115.266 24.2266 115.695 24.5547 116.07 24.9297C116.445 25.3047 116.758 25.7109 117.008 26.1484C117.258 26.5859 117.438 27.0312 117.547 27.4844C117.656 27.9375 117.695 28.375 117.664 28.7969ZM109.906 23.0547C109.875 23.2109 109.836 23.3672 109.789 23.5234C109.758 23.6797 109.719 23.8438 109.672 24.0156C109.859 23.8125 110.172 23.625 110.609 23.4531C111.062 23.2812 111.492 23.1953 111.898 23.1953C112.117 23.1953 112.328 23.2109 112.531 23.2422C112.734 23.2578 112.93 23.2812 113.117 23.3125C113.555 23.0312 113.977 22.6719 114.383 22.2344C114.789 21.7812 115.141 21.3047 115.438 20.8047C115.75 20.2891 116 19.7656 116.188 19.2344C116.391 18.7031 116.516 18.2109 116.562 17.7578C116.656 16.6797 116.469 15.8828 116 15.3672C115.547 14.8359 114.898 14.5703 114.055 14.5703C113.492 14.5703 112.906 14.6719 112.297 14.875C112.172 15.2812 112.016 15.7891 111.828 16.3984C111.641 16.9922 111.438 17.6484 111.219 18.3672C111.016 19.0859 110.797 19.8438 110.562 20.6406C110.328 21.4375 110.109 22.2422 109.906 23.0547ZM109.508 24.6016C109.289 25.4453 109.07 26.3594 108.852 27.3438C108.648 28.1875 108.43 29.1719 108.195 30.2969C107.961 31.4062 107.711 32.5938 107.445 33.8594C107.539 33.9375 107.664 33.9922 107.82 34.0234C107.977 34.0547 108.133 34.0859 108.289 34.1172C108.461 34.1484 108.648 34.1641 108.852 34.1641C109.555 34.1641 110.266 34.0156 110.984 33.7188C111.719 33.4375 112.391 33.0312 113 32.5C113.609 31.9688 114.117 31.3281 114.523 30.5781C114.945 29.8125 115.195 28.9609 115.273 28.0234C115.305 27.6016 115.273 27.2266 115.18 26.8984C115.102 26.5547 114.977 26.25 114.805 25.9844C114.648 25.7031 114.461 25.4609 114.242 25.2578C114.039 25.0391 113.82 24.8516 113.586 24.6953C112.867 25.0859 112.078 25.4141 111.219 25.6797C110.938 25.7578 110.695 25.7734 110.492 25.7266C110.289 25.6641 110.117 25.5781 109.977 25.4688C109.836 25.3438 109.727 25.2031 109.648 25.0469C109.57 24.8906 109.523 24.7422 109.508 24.6016ZM131.727 26.3359C131.508 26.6484 131.227 27.0391 130.883 27.5078C130.539 27.9609 130.18 28.4219 129.805 28.8906C129.445 29.3438 129.086 29.7656 128.727 30.1562C128.383 30.5312 128.094 30.7969 127.859 30.9531C127.703 31.0469 127.523 31.125 127.32 31.1875C127.117 31.25 126.906 31.2891 126.688 31.3047C126.484 31.3203 126.289 31.3047 126.102 31.2578C125.914 31.2266 125.75 31.1641 125.609 31.0703C125.469 30.9609 125.352 30.8047 125.258 30.6016C125.18 30.4297 125.102 30.2031 125.023 29.9219C124.961 29.6406 124.938 29.2891 124.953 28.8672C124.578 29.4922 124.164 29.9766 123.711 30.3203C123.258 30.6484 122.828 30.8906 122.422 31.0469C121.953 31.2188 121.484 31.3203 121.016 31.3516C120.797 31.3516 120.562 31.2734 120.312 31.1172C120.062 30.9766 119.852 30.75 119.68 30.4375C119.508 30.1094 119.398 29.6953 119.352 29.1953C119.305 28.6797 119.367 28.0703 119.539 27.3672C119.758 26.4141 120.102 25.5469 120.57 24.7656C121.055 23.9844 121.578 23.3203 122.141 22.7734C122.703 22.2109 123.258 21.7891 123.805 21.5078C124.352 21.2266 124.805 21.1016 125.164 21.1328C125.586 21.2109 125.93 21.3359 126.195 21.5078C126.414 21.6641 126.555 21.8984 126.617 22.2109C126.695 22.5078 126.57 22.9062 126.242 23.4062C126.461 23.3594 126.641 23.3281 126.781 23.3125C126.938 23.2969 127.055 23.2891 127.133 23.2891C127.227 23.2891 127.289 23.2969 127.32 23.3125C127.336 23.3438 127.344 23.4141 127.344 23.5234C127.344 23.6172 127.32 23.7969 127.273 24.0625C127.227 24.3281 127.156 24.6875 127.062 25.1406C126.969 25.5938 126.844 26.1797 126.688 26.8984C126.656 27.0391 126.625 27.1719 126.594 27.2969C126.578 27.4062 126.555 27.5234 126.523 27.6484C126.508 27.7578 126.484 27.8906 126.453 28.0469C126.422 28.2031 126.383 28.3984 126.336 28.6328C126.32 28.7734 126.312 28.9297 126.312 29.1016C126.328 29.2578 126.359 29.4062 126.406 29.5469C126.453 29.6875 126.523 29.8047 126.617 29.8984C126.727 29.9766 126.875 30.0156 127.062 30.0156C127.219 30.0156 127.422 29.9219 127.672 29.7344C127.922 29.5312 128.188 29.2812 128.469 28.9844C128.75 28.6719 129.039 28.3359 129.336 27.9766C129.648 27.6016 129.938 27.2422 130.203 26.8984C130.469 26.5547 130.703 26.25 130.906 25.9844C131.125 25.7188 131.281 25.5234 131.375 25.3984C131.5 25.2578 131.625 25.1797 131.75 25.1641C131.875 25.1328 131.969 25.1641 132.031 25.2578C132.094 25.3516 132.102 25.4922 132.055 25.6797C132.023 25.8672 131.914 26.0859 131.727 26.3359ZM124.859 27.3672C124.938 27.0547 125.031 26.6875 125.141 26.2656C125.25 25.8438 125.344 25.4375 125.422 25.0469C125.5 24.6562 125.555 24.3359 125.586 24.0859C125.633 23.8203 125.625 23.6953 125.562 23.7109C125.484 23.7266 125.398 23.75 125.305 23.7812C125.227 23.8125 125.125 23.8359 125 23.8516C124.875 23.8672 124.75 23.8906 124.625 23.9219C124.75 23.6719 124.82 23.4688 124.836 23.3125C124.867 23.1406 124.875 23.0078 124.859 22.9141C124.844 22.8047 124.812 22.7188 124.766 22.6562C124.594 22.5156 124.289 22.6328 123.852 23.0078C123.43 23.3672 122.938 24.0391 122.375 25.0234C122.141 25.4297 121.953 25.8672 121.812 26.3359C121.672 26.7891 121.57 27.2188 121.508 27.625C121.461 28.0312 121.453 28.3906 121.484 28.7031C121.516 29 121.578 29.1953 121.672 29.2891C121.844 29.4609 122.039 29.5469 122.258 29.5469C122.477 29.5312 122.695 29.4688 122.914 29.3594C123.148 29.2344 123.375 29.0781 123.594 28.8906C123.828 28.7031 124.031 28.5078 124.203 28.3047C124.391 28.1016 124.539 27.9141 124.648 27.7422C124.773 27.5703 124.844 27.4453 124.859 27.3672ZM134.141 30.2031C134.625 30.2031 135.156 30.0156 135.734 29.6406C136.328 29.25 136.898 28.7969 137.445 28.2812C138.008 27.7656 138.516 27.2422 138.969 26.7109C139.438 26.1641 139.789 25.7266 140.023 25.3984C140.164 25.1953 140.297 25.0781 140.422 25.0469C140.547 25 140.641 25.0156 140.703 25.0938C140.766 25.1719 140.789 25.2969 140.773 25.4688C140.758 25.625 140.688 25.8047 140.562 26.0078C140.453 26.1953 140.266 26.4688 140 26.8281C139.75 27.1719 139.445 27.5547 139.086 27.9766C138.742 28.3828 138.344 28.8047 137.891 29.2422C137.453 29.6641 136.992 30.0547 136.508 30.4141C136.023 30.7578 135.523 31.0391 135.008 31.2578C134.492 31.4922 133.984 31.6094 133.484 31.6094C132.797 31.6094 132.219 31.4766 131.75 31.2109C131.297 30.9609 130.93 30.6328 130.648 30.2266C130.383 29.8203 130.195 29.375 130.086 28.8906C129.977 28.3906 129.922 27.8984 129.922 27.4141C129.922 26.9297 130.031 26.3281 130.25 25.6094C130.469 24.8906 130.789 24.2031 131.211 23.5469C131.648 22.875 132.195 22.3047 132.852 21.8359C133.508 21.3516 134.281 21.1094 135.172 21.1094C135.672 21.1094 136.094 21.2812 136.438 21.625C136.797 21.9688 136.969 22.4375 136.953 23.0312C136.953 23.3125 136.906 23.5938 136.812 23.875C136.719 24.1406 136.594 24.3828 136.438 24.6016C136.281 24.8047 136.094 24.9688 135.875 25.0938C135.672 25.2188 135.445 25.2812 135.195 25.2812C134.992 25.2812 134.836 25.2109 134.727 25.0703C134.633 24.9141 134.57 24.7422 134.539 24.5547C134.523 24.3516 134.523 24.1562 134.539 23.9688C134.57 23.7812 134.602 23.6562 134.633 23.5938C134.711 23.4844 134.797 23.4062 134.891 23.3594C134.984 23.3125 135.094 23.2578 135.219 23.1953C135.312 23.1484 135.383 23.0781 135.43 22.9844C135.492 22.8906 135.523 22.7891 135.523 22.6797C135.523 22.5703 135.492 22.4766 135.43 22.3984C135.367 22.3203 135.266 22.2812 135.125 22.2812C134.984 22.2812 134.727 22.3984 134.352 22.6328C133.992 22.8516 133.617 23.1875 133.227 23.6406C132.852 24.0781 132.516 24.6328 132.219 25.3047C131.922 25.9766 131.766 26.7578 131.75 27.6484C131.734 28.1641 131.805 28.5859 131.961 28.9141C132.117 29.2422 132.312 29.5 132.547 29.6875C132.781 29.875 133.039 30.0078 133.32 30.0859C133.602 30.1641 133.875 30.2031 134.141 30.2031ZM145.812 27.2734C145.656 27.8672 145.445 28.4219 145.18 28.9375C144.914 29.4531 144.594 29.8984 144.219 30.2734C143.859 30.6484 143.445 30.9375 142.977 31.1406C142.523 31.3594 142.023 31.4688 141.477 31.4688C140.836 31.4688 140.328 31.3281 139.953 31.0469C139.594 30.7812 139.32 30.4453 139.133 30.0391C138.961 29.6328 138.859 29.1875 138.828 28.7031C138.781 28.2188 138.758 27.7656 138.758 27.3438C138.758 27.0469 138.797 26.7188 138.875 26.3594C138.938 26 139.031 25.6328 139.156 25.2578C139.281 24.8828 139.438 24.5078 139.625 24.1328C139.828 23.7578 140.062 23.4141 140.328 23.1016C140.422 22.8359 140.562 22.6016 140.75 22.3984C140.953 22.1953 141.18 22.0312 141.43 21.9062C141.695 21.7656 141.977 21.6641 142.273 21.6016C142.57 21.5234 142.859 21.4844 143.141 21.4844C143.188 21.4844 143.227 21.4922 143.258 21.5078C143.305 21.5234 143.352 21.5391 143.398 21.5547C143.602 21.5703 143.852 21.6484 144.148 21.7891C144.461 21.9297 144.758 22.1406 145.039 22.4219C145.336 22.7031 145.586 23.0625 145.789 23.5C145.992 23.9219 146.094 24.4375 146.094 25.0469C146.094 25.1719 146.086 25.3281 146.07 25.5156C146.055 25.6875 146.039 25.8359 146.023 25.9609C146.383 25.8203 146.758 25.6484 147.148 25.4453C147.539 25.2422 147.914 25.0312 148.273 24.8125C148.648 24.5781 148.992 24.3438 149.305 24.1094C149.617 23.875 149.867 23.6641 150.055 23.4766C150.211 23.3359 150.344 23.2578 150.453 23.2422C150.562 23.2266 150.641 23.2578 150.688 23.3359C150.734 23.4141 150.742 23.5234 150.711 23.6641C150.68 23.8047 150.594 23.9609 150.453 24.1328C150.375 24.2266 150.172 24.4141 149.844 24.6953C149.531 24.9766 149.156 25.2812 148.719 25.6094C148.281 25.9375 147.805 26.2578 147.289 26.5703C146.773 26.8828 146.281 27.1172 145.812 27.2734ZM141.852 23.7109C141.805 23.8516 141.781 24 141.781 24.1562C141.781 24.4062 141.797 24.6719 141.828 24.9531C141.859 25.2188 141.938 25.4609 142.062 25.6797C142.188 25.8984 142.383 26.0859 142.648 26.2422C142.93 26.3828 143.312 26.4531 143.797 26.4531C143.875 26.4531 143.953 26.4531 144.031 26.4531C144.109 26.4375 144.188 26.4219 144.266 26.4062C144.312 26.2031 144.352 26.0234 144.383 25.8672C144.43 25.6953 144.453 25.5469 144.453 25.4219C144.484 25.125 144.484 24.8203 144.453 24.5078C144.422 24.1953 144.359 23.9141 144.266 23.6641C144.188 23.3984 144.078 23.1875 143.938 23.0312C143.812 22.8594 143.656 22.7734 143.469 22.7734C143.172 22.7734 142.883 22.8594 142.602 23.0312C142.336 23.1875 142.086 23.4141 141.852 23.7109ZM140.352 27.8359C140.352 28.1172 140.367 28.3984 140.398 28.6797C140.43 28.9453 140.492 29.1875 140.586 29.4062C140.68 29.6094 140.805 29.7812 140.961 29.9219C141.117 30.0469 141.32 30.1094 141.57 30.1094C141.852 30.1094 142.109 30.0469 142.344 29.9219C142.578 29.7812 142.789 29.6094 142.977 29.4062C143.164 29.1875 143.328 28.9453 143.469 28.6797C143.625 28.3984 143.758 28.1094 143.867 27.8125C143.758 27.8281 143.648 27.8438 143.539 27.8594C143.445 27.8594 143.336 27.8594 143.211 27.8594C142.617 27.8594 142.102 27.6875 141.664 27.3438C141.242 26.9844 140.914 26.5312 140.68 25.9844C140.586 26.3125 140.508 26.6328 140.445 26.9453C140.383 27.2578 140.352 27.5547 140.352 27.8359ZM155.281 31.5859C154.922 31.5859 154.609 31.5156 154.344 31.375C154.094 31.25 153.891 31.0781 153.734 30.8594C153.578 30.6406 153.477 30.3906 153.43 30.1094C153.383 29.8125 153.398 29.5 153.477 29.1719C153.523 28.9531 153.602 28.6641 153.711 28.3047C153.82 27.9297 153.93 27.5312 154.039 27.1094C154.164 26.6719 154.273 26.2422 154.367 25.8203C154.477 25.3828 154.547 24.9922 154.578 24.6484C154.609 24.2891 154.594 24 154.531 23.7812C154.469 23.5469 154.336 23.4297 154.133 23.4297C153.883 23.4297 153.625 23.5156 153.359 23.6875C153.094 23.8438 152.82 24.0625 152.539 24.3438C152.273 24.625 152 24.9531 151.719 25.3281C151.453 25.6875 151.188 26.0625 150.922 26.4531C150.781 26.9844 150.664 27.4531 150.57 27.8594C150.477 28.25 150.391 28.6094 150.312 28.9375C150.25 29.25 150.188 29.5312 150.125 29.7812C150.062 30.0156 150.008 30.2422 149.961 30.4609C149.914 30.6172 149.773 30.7734 149.539 30.9297C149.305 31.0703 149.055 31.1875 148.789 31.2812C148.523 31.375 148.297 31.4219 148.109 31.4219C147.906 31.4219 147.82 31.3516 147.852 31.2109C147.867 31.1172 147.922 30.9062 148.016 30.5781C148.094 30.25 148.195 29.8672 148.32 29.4297C148.43 28.9766 148.547 28.5 148.672 28C148.797 27.5 148.914 27.0234 149.023 26.5703C149.102 26.2109 149.188 25.8125 149.281 25.375C149.359 25 149.453 24.5625 149.562 24.0625C149.688 23.5625 149.828 23.0156 149.984 22.4219C150.094 22.3281 150.203 22.2578 150.312 22.2109C150.438 22.1484 150.562 22.1016 150.688 22.0703C150.812 22.0234 150.945 21.9922 151.086 21.9766C151.211 21.9766 151.336 21.9844 151.461 22C151.57 22.0156 151.68 22.0469 151.789 22.0938C151.914 22.125 152.023 22.1797 152.117 22.2578C152.07 22.3672 152.016 22.5234 151.953 22.7266C151.891 22.9141 151.828 23.1172 151.766 23.3359C151.703 23.5859 151.625 23.8438 151.531 24.1094C151.734 23.8281 151.961 23.5469 152.211 23.2656C152.477 22.9688 152.758 22.7031 153.055 22.4688C153.367 22.2344 153.695 22.0469 154.039 21.9062C154.383 21.75 154.734 21.6719 155.094 21.6719C155.391 21.6719 155.656 21.7578 155.891 21.9297C156.125 22.1016 156.305 22.3438 156.43 22.6562C156.57 22.9531 156.648 23.3125 156.664 23.7344C156.695 24.1562 156.641 24.6172 156.5 25.1172L156.242 26.1484C156.164 26.4766 156.062 26.8672 155.938 27.3203C155.828 27.7578 155.688 28.2422 155.516 28.7734C155.422 29.1172 155.383 29.4141 155.398 29.6641C155.43 29.9141 155.586 30.0391 155.867 30.0391C156.148 30.0391 156.5 29.8672 156.922 29.5234C157.359 29.1797 157.797 28.7656 158.234 28.2812C158.672 27.7969 159.086 27.3047 159.477 26.8047C159.867 26.2891 160.164 25.875 160.367 25.5625C160.508 25.3594 160.641 25.2266 160.766 25.1641C160.891 25.1016 160.984 25.0938 161.047 25.1406C161.125 25.1875 161.164 25.2969 161.164 25.4688C161.164 25.625 161.102 25.8281 160.977 26.0781C160.867 26.2969 160.695 26.5859 160.461 26.9453C160.242 27.3047 159.977 27.6875 159.664 28.0938C159.352 28.5 159.016 28.9141 158.656 29.3359C158.297 29.7422 157.922 30.1172 157.531 30.4609C157.141 30.7891 156.75 31.0547 156.359 31.2578C155.984 31.4766 155.625 31.5859 155.281 31.5859Z" fill="white"/>
</svg>
