<svg width="154" height="50" viewBox="0 0 154 50" fill="none" xmlns="http://www.w3.org/2000/svg">
<rect width="50" height="50" rx="10" fill="#003578"/>
<path d="M13.6641 35.6172C13.2109 35.6172 12.7656 35.5234 12.3281 35.3359C11.8906 35.1641 11.5 34.9141 11.1562 34.5859C10.8125 34.2578 10.5391 33.8516 10.3359 33.3672C10.1328 32.8984 10.0469 32.3594 10.0781 31.75C10.125 30.6875 10.3359 29.7031 10.7109 28.7969C11.0859 27.8906 11.5234 27.1094 12.0234 26.4531C12.5234 25.7969 13.0312 25.2891 13.5469 24.9297C14.0625 24.5547 14.4922 24.3672 14.8359 24.3672C15.0547 24.3672 15.25 24.4453 15.4219 24.6016C15.6094 24.7422 15.75 24.9297 15.8438 25.1641C15.9531 25.3828 16.0156 25.6328 16.0312 25.9141C16.0625 26.1797 16.0312 26.4375 15.9375 26.6875C15.7812 26.5781 15.4922 26.6172 15.0703 26.8047C14.6484 26.9922 14.2109 27.3125 13.7578 27.7656C13.3047 28.2031 12.8984 28.75 12.5391 29.4062C12.1797 30.0625 11.9766 30.7969 11.9297 31.6094C11.8984 32.1406 11.9219 32.5938 12 32.9688C12.0938 33.3438 12.2188 33.6484 12.375 33.8828C12.5469 34.1172 12.7344 34.2891 12.9375 34.3984C13.1562 34.5078 13.3828 34.5625 13.6172 34.5625C14.1797 34.5625 14.6953 34.3516 15.1641 33.9297C15.6328 33.5078 16.0625 32.9141 16.4531 32.1484C16.8438 31.3984 17.2109 30.5 17.5547 29.4531C17.8984 28.3906 18.2266 27.2188 18.5391 25.9375C18.6328 25.5469 18.75 25.0625 18.8906 24.4844C19.0469 23.9062 19.2109 23.2812 19.3828 22.6094C19.5547 21.9219 19.7344 21.2188 19.9219 20.5C20.125 19.7656 20.3125 19.0703 20.4844 18.4141C20.6562 17.7422 20.8203 17.125 20.9766 16.5625C21.1328 15.9844 21.2578 15.5156 21.3516 15.1562C20.8359 15.1562 20.3203 15.1875 19.8047 15.25C19.3672 15.2969 18.9141 15.3672 18.4453 15.4609C17.9766 15.5391 17.5859 15.6484 17.2734 15.7891C17.2422 15.7734 17.2188 15.7344 17.2031 15.6719C17.1875 15.5938 17.1719 15.5156 17.1562 15.4375C17.1406 15.3438 17.125 15.2422 17.1094 15.1328C17.0938 15.0078 17.0938 14.8828 17.1094 14.7578C17.125 14.6484 17.1406 14.5312 17.1562 14.4062C17.1719 14.2656 17.2031 14.125 17.25 13.9844C17.6562 13.8594 18.125 13.7656 18.6562 13.7031C19.2031 13.625 19.7109 13.5703 20.1797 13.5391C20.7266 13.4922 21.2891 13.4688 21.8672 13.4688C22.2891 13.4688 22.7266 13.4922 23.1797 13.5391C23.5703 13.5703 24.0078 13.6172 24.4922 13.6797C24.9766 13.7422 25.4609 13.8359 25.9453 13.9609C26.0547 14.0703 26.125 14.1953 26.1562 14.3359C26.1719 14.3984 26.1797 14.4688 26.1797 14.5469C26.1797 14.6719 26.1562 14.7891 26.1094 14.8984C26.0781 14.9922 26.0234 15.0938 25.9453 15.2031C25.8828 15.2969 25.7969 15.375 25.6875 15.4375C25.5156 15.3906 25.2969 15.3594 25.0312 15.3438C24.7812 15.3125 24.5312 15.2812 24.2812 15.25C24 15.2188 23.7031 15.1953 23.3906 15.1797L20.9062 26.2422C20.8438 26.5078 20.7344 26.9297 20.5781 27.5078C20.4219 28.0703 20.2031 28.7031 19.9219 29.4062C19.6562 30.0938 19.3281 30.8047 18.9375 31.5391C18.5625 32.2734 18.1172 32.9375 17.6016 33.5312C17.0859 34.1406 16.5 34.6406 15.8438 35.0312C15.1875 35.4219 14.4609 35.6172 13.6641 35.6172ZM36.5625 28.7969C36.4688 29.8438 36.1562 30.7812 35.625 31.6094C35.0938 32.4375 34.4141 33.1328 33.5859 33.6953C32.7734 34.2734 31.8516 34.7109 30.8203 35.0078C29.7891 35.3047 28.7266 35.4531 27.6328 35.4531C27.2266 35.4531 26.8438 35.4219 26.4844 35.3594C26.1406 35.3125 25.8281 35.25 25.5469 35.1719C25.2656 35.0938 25.0234 35.0156 24.8203 34.9375C24.6328 34.875 24.5 34.8203 24.4219 34.7734C24.2812 34.6953 24.1641 34.5938 24.0703 34.4688C23.9922 34.3594 23.9453 34.1953 23.9297 33.9766C23.9141 33.8516 23.9062 33.75 23.9062 33.6719C23.9062 33.6094 23.9141 33.5391 23.9297 33.4609C23.9453 33.3828 23.9766 33.2734 24.0234 33.1328C24.0547 33.0078 24.1016 32.8281 24.1641 32.5938C24.1953 32.4531 24.3125 32.0078 24.5156 31.2578C24.7344 30.5234 24.9922 29.625 25.2891 28.5625C25.5859 27.4844 25.9062 26.3203 26.25 25.0703C26.6094 23.8203 26.9531 22.6094 27.2812 21.4375C27.6094 20.2656 27.9062 19.2109 28.1719 18.2734C28.4375 17.3203 28.6328 16.6172 28.7578 16.1641C28.5391 16.3203 28.3203 16.4844 28.1016 16.6562C27.8984 16.8281 27.6875 17.0156 27.4688 17.2188C27.2344 17.4375 27 17.5156 26.7656 17.4531C26.5469 17.375 26.3906 17.1797 26.2969 16.8672C26.2656 16.7109 26.2422 16.5469 26.2266 16.375C26.2109 16.2344 26.2109 16.0781 26.2266 15.9062C26.2578 15.7188 26.3203 15.5391 26.4141 15.3672C26.9297 15.0547 27.4297 14.7891 27.9141 14.5703C28.4141 14.3516 28.8906 14.1562 29.3438 13.9844C29.4375 13.7188 29.5391 13.5156 29.6484 13.375C29.7734 13.2344 29.8984 13.1406 30.0234 13.0938C30.1484 13.0469 30.2812 13.0312 30.4219 13.0469C30.5625 13.0625 30.7109 13.0859 30.8672 13.1172C31.2109 13.1953 31.4375 13.3047 31.5469 13.4453C31.7656 13.4141 31.9766 13.3906 32.1797 13.375C32.3828 13.3594 32.5938 13.3516 32.8125 13.3516C33.7188 13.3516 34.5078 13.4688 35.1797 13.7031C35.8516 13.9375 36.3984 14.2578 36.8203 14.6641C37.2578 15.0547 37.5703 15.5156 37.7578 16.0469C37.9453 16.5781 38.0156 17.1406 37.9688 17.7344C37.9219 18.25 37.7812 18.7891 37.5469 19.3516C37.3281 19.8984 37.0312 20.4453 36.6562 20.9922C36.2812 21.5234 35.8438 22.0469 35.3438 22.5625C34.8438 23.0625 34.2891 23.5234 33.6797 23.9453C34.1641 24.2266 34.5938 24.5547 34.9688 24.9297C35.3438 25.3047 35.6562 25.7109 35.9062 26.1484C36.1562 26.5859 36.3359 27.0312 36.4453 27.4844C36.5547 27.9375 36.5938 28.375 36.5625 28.7969ZM28.8047 23.0547C28.7734 23.2109 28.7344 23.3672 28.6875 23.5234C28.6562 23.6797 28.6172 23.8438 28.5703 24.0156C28.7578 23.8125 29.0703 23.625 29.5078 23.4531C29.9609 23.2812 30.3906 23.1953 30.7969 23.1953C31.0156 23.1953 31.2266 23.2109 31.4297 23.2422C31.6328 23.2578 31.8281 23.2812 32.0156 23.3125C32.4531 23.0312 32.875 22.6719 33.2812 22.2344C33.6875 21.7812 34.0391 21.3047 34.3359 20.8047C34.6484 20.2891 34.8984 19.7656 35.0859 19.2344C35.2891 18.7031 35.4141 18.2109 35.4609 17.7578C35.5547 16.6797 35.3672 15.8828 34.8984 15.3672C34.4453 14.8359 33.7969 14.5703 32.9531 14.5703C32.3906 14.5703 31.8047 14.6719 31.1953 14.875C31.0703 15.2812 30.9141 15.7891 30.7266 16.3984C30.5391 16.9922 30.3359 17.6484 30.1172 18.3672C29.9141 19.0859 29.6953 19.8438 29.4609 20.6406C29.2266 21.4375 29.0078 22.2422 28.8047 23.0547ZM28.4062 24.6016C28.1875 25.4453 27.9688 26.3594 27.75 27.3438C27.5469 28.1875 27.3281 29.1719 27.0938 30.2969C26.8594 31.4062 26.6094 32.5938 26.3438 33.8594C26.4375 33.9375 26.5625 33.9922 26.7188 34.0234C26.875 34.0547 27.0312 34.0859 27.1875 34.1172C27.3594 34.1484 27.5469 34.1641 27.75 34.1641C28.4531 34.1641 29.1641 34.0156 29.8828 33.7188C30.6172 33.4375 31.2891 33.0312 31.8984 32.5C32.5078 31.9688 33.0156 31.3281 33.4219 30.5781C33.8438 29.8125 34.0938 28.9609 34.1719 28.0234C34.2031 27.6016 34.1719 27.2266 34.0781 26.8984C34 26.5547 33.875 26.25 33.7031 25.9844C33.5469 25.7031 33.3594 25.4609 33.1406 25.2578C32.9375 25.0391 32.7188 24.8516 32.4844 24.6953C31.7656 25.0859 30.9766 25.4141 30.1172 25.6797C29.8359 25.7578 29.5938 25.7734 29.3906 25.7266C29.1875 25.6641 29.0156 25.5781 28.875 25.4688C28.7344 25.3438 28.625 25.2031 28.5469 25.0469C28.4688 24.8906 28.4219 24.7422 28.4062 24.6016Z" fill="white"/>
<path d="M61.6641 35.6172C61.2109 35.6172 60.7656 35.5234 60.3281 35.3359C59.8906 35.1641 59.5 34.9141 59.1562 34.5859C58.8125 34.2578 58.5391 33.8516 58.3359 33.3672C58.1328 32.8984 58.0469 32.3594 58.0781 31.75C58.125 30.6875 58.3359 29.7031 58.7109 28.7969C59.0859 27.8906 59.5234 27.1094 60.0234 26.4531C60.5234 25.7969 61.0312 25.2891 61.5469 24.9297C62.0625 24.5547 62.4922 24.3672 62.8359 24.3672C63.0547 24.3672 63.25 24.4453 63.4219 24.6016C63.6094 24.7422 63.75 24.9297 63.8438 25.1641C63.9531 25.3828 64.0156 25.6328 64.0312 25.9141C64.0625 26.1797 64.0312 26.4375 63.9375 26.6875C63.7812 26.5781 63.4922 26.6172 63.0703 26.8047C62.6484 26.9922 62.2109 27.3125 61.7578 27.7656C61.3047 28.2031 60.8984 28.75 60.5391 29.4062C60.1797 30.0625 59.9766 30.7969 59.9297 31.6094C59.8984 32.1406 59.9219 32.5938 60 32.9688C60.0938 33.3438 60.2188 33.6484 60.375 33.8828C60.5469 34.1172 60.7344 34.2891 60.9375 34.3984C61.1562 34.5078 61.3828 34.5625 61.6172 34.5625C62.1797 34.5625 62.6953 34.3516 63.1641 33.9297C63.6328 33.5078 64.0625 32.9141 64.4531 32.1484C64.8438 31.3984 65.2109 30.5 65.5547 29.4531C65.8984 28.3906 66.2266 27.2188 66.5391 25.9375C66.6328 25.5469 66.75 25.0625 66.8906 24.4844C67.0469 23.9062 67.2109 23.2812 67.3828 22.6094C67.5547 21.9219 67.7344 21.2188 67.9219 20.5C68.125 19.7656 68.3125 19.0703 68.4844 18.4141C68.6562 17.7422 68.8203 17.125 68.9766 16.5625C69.1328 15.9844 69.2578 15.5156 69.3516 15.1562C68.8359 15.1562 68.3203 15.1875 67.8047 15.25C67.3672 15.2969 66.9141 15.3672 66.4453 15.4609C65.9766 15.5391 65.5859 15.6484 65.2734 15.7891C65.2422 15.7734 65.2188 15.7344 65.2031 15.6719C65.1875 15.5938 65.1719 15.5156 65.1562 15.4375C65.1406 15.3438 65.125 15.2422 65.1094 15.1328C65.0938 15.0078 65.0938 14.8828 65.1094 14.7578C65.125 14.6484 65.1406 14.5312 65.1562 14.4062C65.1719 14.2656 65.2031 14.125 65.25 13.9844C65.6562 13.8594 66.125 13.7656 66.6562 13.7031C67.2031 13.625 67.7109 13.5703 68.1797 13.5391C68.7266 13.4922 69.2891 13.4688 69.8672 13.4688C70.2891 13.4688 70.7266 13.4922 71.1797 13.5391C71.5703 13.5703 72.0078 13.6172 72.4922 13.6797C72.9766 13.7422 73.4609 13.8359 73.9453 13.9609C74.0547 14.0703 74.125 14.1953 74.1562 14.3359C74.1719 14.3984 74.1797 14.4688 74.1797 14.5469C74.1797 14.6719 74.1562 14.7891 74.1094 14.8984C74.0781 14.9922 74.0234 15.0938 73.9453 15.2031C73.8828 15.2969 73.7969 15.375 73.6875 15.4375C73.5156 15.3906 73.2969 15.3594 73.0312 15.3438C72.7812 15.3125 72.5312 15.2812 72.2812 15.25C72 15.2188 71.7031 15.1953 71.3906 15.1797L68.9062 26.2422C68.8438 26.5078 68.7344 26.9297 68.5781 27.5078C68.4219 28.0703 68.2031 28.7031 67.9219 29.4062C67.6562 30.0938 67.3281 30.8047 66.9375 31.5391C66.5625 32.2734 66.1172 32.9375 65.6016 33.5312C65.0859 34.1406 64.5 34.6406 63.8438 35.0312C63.1875 35.4219 62.4609 35.6172 61.6641 35.6172ZM78.9609 27.2734C78.8047 27.8672 78.5938 28.4219 78.3281 28.9375C78.0625 29.4531 77.7422 29.8984 77.3672 30.2734C77.0078 30.6484 76.5938 30.9375 76.125 31.1406C75.6719 31.3594 75.1719 31.4688 74.625 31.4688C73.9844 31.4688 73.4766 31.3281 73.1016 31.0469C72.7422 30.7812 72.4688 30.4453 72.2812 30.0391C72.1094 29.6328 72.0078 29.1875 71.9766 28.7031C71.9297 28.2188 71.9062 27.7656 71.9062 27.3438C71.9062 27.0469 71.9453 26.7188 72.0234 26.3594C72.0859 26 72.1797 25.6328 72.3047 25.2578C72.4297 24.8828 72.5859 24.5078 72.7734 24.1328C72.9766 23.7578 73.2109 23.4141 73.4766 23.1016C73.5703 22.8359 73.7109 22.6016 73.8984 22.3984C74.1016 22.1953 74.3281 22.0312 74.5781 21.9062C74.8438 21.7656 75.125 21.6641 75.4219 21.6016C75.7188 21.5234 76.0078 21.4844 76.2891 21.4844C76.3359 21.4844 76.375 21.4922 76.4062 21.5078C76.4531 21.5234 76.5 21.5391 76.5469 21.5547C76.75 21.5703 77 21.6484 77.2969 21.7891C77.6094 21.9297 77.9062 22.1406 78.1875 22.4219C78.4844 22.7031 78.7344 23.0625 78.9375 23.5C79.1406 23.9219 79.2422 24.4375 79.2422 25.0469C79.2422 25.1719 79.2344 25.3281 79.2188 25.5156C79.2031 25.6875 79.1875 25.8359 79.1719 25.9609C79.5312 25.8203 79.9062 25.6484 80.2969 25.4453C80.6875 25.2422 81.0625 25.0312 81.4219 24.8125C81.7969 24.5781 82.1406 24.3438 82.4531 24.1094C82.7656 23.875 83.0156 23.6641 83.2031 23.4766C83.3594 23.3359 83.4922 23.2578 83.6016 23.2422C83.7109 23.2266 83.7891 23.2578 83.8359 23.3359C83.8828 23.4141 83.8906 23.5234 83.8594 23.6641C83.8281 23.8047 83.7422 23.9609 83.6016 24.1328C83.5234 24.2266 83.3203 24.4141 82.9922 24.6953C82.6797 24.9766 82.3047 25.2812 81.8672 25.6094C81.4297 25.9375 80.9531 26.2578 80.4375 26.5703C79.9219 26.8828 79.4297 27.1172 78.9609 27.2734ZM75 23.7109C74.9531 23.8516 74.9297 24 74.9297 24.1562C74.9297 24.4062 74.9453 24.6719 74.9766 24.9531C75.0078 25.2188 75.0859 25.4609 75.2109 25.6797C75.3359 25.8984 75.5312 26.0859 75.7969 26.2422C76.0781 26.3828 76.4609 26.4531 76.9453 26.4531C77.0234 26.4531 77.1016 26.4531 77.1797 26.4531C77.2578 26.4375 77.3359 26.4219 77.4141 26.4062C77.4609 26.2031 77.5 26.0234 77.5312 25.8672C77.5781 25.6953 77.6016 25.5469 77.6016 25.4219C77.6328 25.125 77.6328 24.8203 77.6016 24.5078C77.5703 24.1953 77.5078 23.9141 77.4141 23.6641C77.3359 23.3984 77.2266 23.1875 77.0859 23.0312C76.9609 22.8594 76.8047 22.7734 76.6172 22.7734C76.3203 22.7734 76.0312 22.8594 75.75 23.0312C75.4844 23.1875 75.2344 23.4141 75 23.7109ZM73.5 27.8359C73.5 28.1172 73.5156 28.3984 73.5469 28.6797C73.5781 28.9453 73.6406 29.1875 73.7344 29.4062C73.8281 29.6094 73.9531 29.7812 74.1094 29.9219C74.2656 30.0469 74.4688 30.1094 74.7188 30.1094C75 30.1094 75.2578 30.0469 75.4922 29.9219C75.7266 29.7812 75.9375 29.6094 76.125 29.4062C76.3125 29.1875 76.4766 28.9453 76.6172 28.6797C76.7734 28.3984 76.9062 28.1094 77.0156 27.8125C76.9062 27.8281 76.7969 27.8438 76.6875 27.8594C76.5938 27.8594 76.4844 27.8594 76.3594 27.8594C75.7656 27.8594 75.25 27.6875 74.8125 27.3438C74.3906 26.9844 74.0625 26.5312 73.8281 25.9844C73.7344 26.3125 73.6562 26.6328 73.5938 26.9453C73.5312 27.2578 73.5 27.5547 73.5 27.8359ZM92.0859 26.125C91.6172 26.8125 91.0859 27.4844 90.4922 28.1406C89.8984 28.7812 89.2656 29.3594 88.5938 29.875C87.9375 30.375 87.2578 30.7812 86.5547 31.0938C85.8672 31.4062 85.1953 31.5625 84.5391 31.5625C84.1953 31.5625 83.8203 31.4766 83.4141 31.3047C83.0234 31.1484 82.6641 30.8984 82.3359 30.5547C82.0078 30.2109 81.7422 29.7656 81.5391 29.2188C81.3516 28.6719 81.2969 28.0078 81.375 27.2266C81.4375 26.5859 81.6328 25.9141 81.9609 25.2109C82.3047 24.4922 82.7188 23.8359 83.2031 23.2422C83.7031 22.6484 84.2578 22.1562 84.8672 21.7656C85.4922 21.375 86.1172 21.1797 86.7422 21.1797C87.3359 21.1797 87.7656 21.3281 88.0312 21.625C88.2969 21.9219 88.4141 22.2891 88.3828 22.7266C88.3359 23.2109 88.1953 23.6562 87.9609 24.0625C87.7422 24.4688 87.4766 24.8359 87.1641 25.1641C86.8516 25.4922 86.5156 25.7891 86.1562 26.0547C85.8125 26.3203 85.4844 26.5625 85.1719 26.7812C84.8281 27.0156 84.5 27.2422 84.1875 27.4609C83.875 27.6641 83.6016 27.8516 83.3672 28.0234C83.3828 28.4141 83.4531 28.7422 83.5781 29.0078C83.7031 29.2734 83.8594 29.4922 84.0469 29.6641C84.2344 29.8203 84.4453 29.9375 84.6797 30.0156C84.9297 30.0781 85.1797 30.1094 85.4297 30.1094C85.9609 30.1094 86.5156 29.9453 87.0938 29.6172C87.6719 29.2734 88.2344 28.8672 88.7812 28.3984C89.3438 27.9141 89.8594 27.4141 90.3281 26.8984C90.8125 26.3828 91.2109 25.9375 91.5234 25.5625C91.6328 25.4375 91.7422 25.3672 91.8516 25.3516C91.9766 25.3203 92.0703 25.3359 92.1328 25.3984C92.2109 25.4453 92.25 25.5391 92.25 25.6797C92.25 25.8047 92.1953 25.9531 92.0859 26.125ZM86.0859 22.5156C85.8984 22.5156 85.6719 22.6094 85.4062 22.7969C85.1562 22.9844 84.9062 23.2578 84.6562 23.6172C84.4062 23.9609 84.1719 24.3906 83.9531 24.9062C83.7344 25.4062 83.5703 25.9844 83.4609 26.6406C83.6484 26.5 83.8516 26.3594 84.0703 26.2188C84.2891 26.0625 84.5078 25.8984 84.7266 25.7266C85.3984 25.2109 85.8672 24.7578 86.1328 24.3672C86.3984 23.9766 86.5469 23.6406 86.5781 23.3594C86.6094 23.0625 86.5781 22.8516 86.4844 22.7266C86.3906 22.5859 86.2578 22.5156 86.0859 22.5156ZM109.664 28.7969C109.57 29.8438 109.258 30.7812 108.727 31.6094C108.195 32.4375 107.516 33.1328 106.688 33.6953C105.875 34.2734 104.953 34.7109 103.922 35.0078C102.891 35.3047 101.828 35.4531 100.734 35.4531C100.328 35.4531 99.9453 35.4219 99.5859 35.3594C99.2422 35.3125 98.9297 35.25 98.6484 35.1719C98.3672 35.0938 98.125 35.0156 97.9219 34.9375C97.7344 34.875 97.6016 34.8203 97.5234 34.7734C97.3828 34.6953 97.2656 34.5938 97.1719 34.4688C97.0938 34.3594 97.0469 34.1953 97.0312 33.9766C97.0156 33.8516 97.0078 33.75 97.0078 33.6719C97.0078 33.6094 97.0156 33.5391 97.0312 33.4609C97.0469 33.3828 97.0781 33.2734 97.125 33.1328C97.1562 33.0078 97.2031 32.8281 97.2656 32.5938C97.2969 32.4531 97.4141 32.0078 97.6172 31.2578C97.8359 30.5234 98.0938 29.625 98.3906 28.5625C98.6875 27.4844 99.0078 26.3203 99.3516 25.0703C99.7109 23.8203 100.055 22.6094 100.383 21.4375C100.711 20.2656 101.008 19.2109 101.273 18.2734C101.539 17.3203 101.734 16.6172 101.859 16.1641C101.641 16.3203 101.422 16.4844 101.203 16.6562C101 16.8281 100.789 17.0156 100.57 17.2188C100.336 17.4375 100.102 17.5156 99.8672 17.4531C99.6484 17.375 99.4922 17.1797 99.3984 16.8672C99.3672 16.7109 99.3438 16.5469 99.3281 16.375C99.3125 16.2344 99.3125 16.0781 99.3281 15.9062C99.3594 15.7188 99.4219 15.5391 99.5156 15.3672C100.031 15.0547 100.531 14.7891 101.016 14.5703C101.516 14.3516 101.992 14.1562 102.445 13.9844C102.539 13.7188 102.641 13.5156 102.75 13.375C102.875 13.2344 103 13.1406 103.125 13.0938C103.25 13.0469 103.383 13.0312 103.523 13.0469C103.664 13.0625 103.812 13.0859 103.969 13.1172C104.312 13.1953 104.539 13.3047 104.648 13.4453C104.867 13.4141 105.078 13.3906 105.281 13.375C105.484 13.3594 105.695 13.3516 105.914 13.3516C106.82 13.3516 107.609 13.4688 108.281 13.7031C108.953 13.9375 109.5 14.2578 109.922 14.6641C110.359 15.0547 110.672 15.5156 110.859 16.0469C111.047 16.5781 111.117 17.1406 111.07 17.7344C111.023 18.25 110.883 18.7891 110.648 19.3516C110.43 19.8984 110.133 20.4453 109.758 20.9922C109.383 21.5234 108.945 22.0469 108.445 22.5625C107.945 23.0625 107.391 23.5234 106.781 23.9453C107.266 24.2266 107.695 24.5547 108.07 24.9297C108.445 25.3047 108.758 25.7109 109.008 26.1484C109.258 26.5859 109.438 27.0312 109.547 27.4844C109.656 27.9375 109.695 28.375 109.664 28.7969ZM101.906 23.0547C101.875 23.2109 101.836 23.3672 101.789 23.5234C101.758 23.6797 101.719 23.8438 101.672 24.0156C101.859 23.8125 102.172 23.625 102.609 23.4531C103.062 23.2812 103.492 23.1953 103.898 23.1953C104.117 23.1953 104.328 23.2109 104.531 23.2422C104.734 23.2578 104.93 23.2812 105.117 23.3125C105.555 23.0312 105.977 22.6719 106.383 22.2344C106.789 21.7812 107.141 21.3047 107.438 20.8047C107.75 20.2891 108 19.7656 108.188 19.2344C108.391 18.7031 108.516 18.2109 108.562 17.7578C108.656 16.6797 108.469 15.8828 108 15.3672C107.547 14.8359 106.898 14.5703 106.055 14.5703C105.492 14.5703 104.906 14.6719 104.297 14.875C104.172 15.2812 104.016 15.7891 103.828 16.3984C103.641 16.9922 103.438 17.6484 103.219 18.3672C103.016 19.0859 102.797 19.8438 102.562 20.6406C102.328 21.4375 102.109 22.2422 101.906 23.0547ZM101.508 24.6016C101.289 25.4453 101.07 26.3594 100.852 27.3438C100.648 28.1875 100.43 29.1719 100.195 30.2969C99.9609 31.4062 99.7109 32.5938 99.4453 33.8594C99.5391 33.9375 99.6641 33.9922 99.8203 34.0234C99.9766 34.0547 100.133 34.0859 100.289 34.1172C100.461 34.1484 100.648 34.1641 100.852 34.1641C101.555 34.1641 102.266 34.0156 102.984 33.7188C103.719 33.4375 104.391 33.0312 105 32.5C105.609 31.9688 106.117 31.3281 106.523 30.5781C106.945 29.8125 107.195 28.9609 107.273 28.0234C107.305 27.6016 107.273 27.2266 107.18 26.8984C107.102 26.5547 106.977 26.25 106.805 25.9844C106.648 25.7031 106.461 25.4609 106.242 25.2578C106.039 25.0391 105.82 24.8516 105.586 24.6953C104.867 25.0859 104.078 25.4141 103.219 25.6797C102.938 25.7578 102.695 25.7734 102.492 25.7266C102.289 25.6641 102.117 25.5781 101.977 25.4688C101.836 25.3438 101.727 25.2031 101.648 25.0469C101.57 24.8906 101.523 24.7422 101.508 24.6016ZM123.727 26.3359C123.508 26.6484 123.227 27.0391 122.883 27.5078C122.539 27.9609 122.18 28.4219 121.805 28.8906C121.445 29.3438 121.086 29.7656 120.727 30.1562C120.383 30.5312 120.094 30.7969 119.859 30.9531C119.703 31.0469 119.523 31.125 119.32 31.1875C119.117 31.25 118.906 31.2891 118.688 31.3047C118.484 31.3203 118.289 31.3047 118.102 31.2578C117.914 31.2266 117.75 31.1641 117.609 31.0703C117.469 30.9609 117.352 30.8047 117.258 30.6016C117.18 30.4297 117.102 30.2031 117.023 29.9219C116.961 29.6406 116.938 29.2891 116.953 28.8672C116.578 29.4922 116.164 29.9766 115.711 30.3203C115.258 30.6484 114.828 30.8906 114.422 31.0469C113.953 31.2188 113.484 31.3203 113.016 31.3516C112.797 31.3516 112.562 31.2734 112.312 31.1172C112.062 30.9766 111.852 30.75 111.68 30.4375C111.508 30.1094 111.398 29.6953 111.352 29.1953C111.305 28.6797 111.367 28.0703 111.539 27.3672C111.758 26.4141 112.102 25.5469 112.57 24.7656C113.055 23.9844 113.578 23.3203 114.141 22.7734C114.703 22.2109 115.258 21.7891 115.805 21.5078C116.352 21.2266 116.805 21.1016 117.164 21.1328C117.586 21.2109 117.93 21.3359 118.195 21.5078C118.414 21.6641 118.555 21.8984 118.617 22.2109C118.695 22.5078 118.57 22.9062 118.242 23.4062C118.461 23.3594 118.641 23.3281 118.781 23.3125C118.938 23.2969 119.055 23.2891 119.133 23.2891C119.227 23.2891 119.289 23.2969 119.32 23.3125C119.336 23.3438 119.344 23.4141 119.344 23.5234C119.344 23.6172 119.32 23.7969 119.273 24.0625C119.227 24.3281 119.156 24.6875 119.062 25.1406C118.969 25.5938 118.844 26.1797 118.688 26.8984C118.656 27.0391 118.625 27.1719 118.594 27.2969C118.578 27.4062 118.555 27.5234 118.523 27.6484C118.508 27.7578 118.484 27.8906 118.453 28.0469C118.422 28.2031 118.383 28.3984 118.336 28.6328C118.32 28.7734 118.312 28.9297 118.312 29.1016C118.328 29.2578 118.359 29.4062 118.406 29.5469C118.453 29.6875 118.523 29.8047 118.617 29.8984C118.727 29.9766 118.875 30.0156 119.062 30.0156C119.219 30.0156 119.422 29.9219 119.672 29.7344C119.922 29.5312 120.188 29.2812 120.469 28.9844C120.75 28.6719 121.039 28.3359 121.336 27.9766C121.648 27.6016 121.938 27.2422 122.203 26.8984C122.469 26.5547 122.703 26.25 122.906 25.9844C123.125 25.7188 123.281 25.5234 123.375 25.3984C123.5 25.2578 123.625 25.1797 123.75 25.1641C123.875 25.1328 123.969 25.1641 124.031 25.2578C124.094 25.3516 124.102 25.4922 124.055 25.6797C124.023 25.8672 123.914 26.0859 123.727 26.3359ZM116.859 27.3672C116.938 27.0547 117.031 26.6875 117.141 26.2656C117.25 25.8438 117.344 25.4375 117.422 25.0469C117.5 24.6562 117.555 24.3359 117.586 24.0859C117.633 23.8203 117.625 23.6953 117.562 23.7109C117.484 23.7266 117.398 23.75 117.305 23.7812C117.227 23.8125 117.125 23.8359 117 23.8516C116.875 23.8672 116.75 23.8906 116.625 23.9219C116.75 23.6719 116.82 23.4688 116.836 23.3125C116.867 23.1406 116.875 23.0078 116.859 22.9141C116.844 22.8047 116.812 22.7188 116.766 22.6562C116.594 22.5156 116.289 22.6328 115.852 23.0078C115.43 23.3672 114.938 24.0391 114.375 25.0234C114.141 25.4297 113.953 25.8672 113.812 26.3359C113.672 26.7891 113.57 27.2188 113.508 27.625C113.461 28.0312 113.453 28.3906 113.484 28.7031C113.516 29 113.578 29.1953 113.672 29.2891C113.844 29.4609 114.039 29.5469 114.258 29.5469C114.477 29.5312 114.695 29.4688 114.914 29.3594C115.148 29.2344 115.375 29.0781 115.594 28.8906C115.828 28.7031 116.031 28.5078 116.203 28.3047C116.391 28.1016 116.539 27.9141 116.648 27.7422C116.773 27.5703 116.844 27.4453 116.859 27.3672ZM126.141 30.2031C126.625 30.2031 127.156 30.0156 127.734 29.6406C128.328 29.25 128.898 28.7969 129.445 28.2812C130.008 27.7656 130.516 27.2422 130.969 26.7109C131.438 26.1641 131.789 25.7266 132.023 25.3984C132.164 25.1953 132.297 25.0781 132.422 25.0469C132.547 25 132.641 25.0156 132.703 25.0938C132.766 25.1719 132.789 25.2969 132.773 25.4688C132.758 25.625 132.688 25.8047 132.562 26.0078C132.453 26.1953 132.266 26.4688 132 26.8281C131.75 27.1719 131.445 27.5547 131.086 27.9766C130.742 28.3828 130.344 28.8047 129.891 29.2422C129.453 29.6641 128.992 30.0547 128.508 30.4141C128.023 30.7578 127.523 31.0391 127.008 31.2578C126.492 31.4922 125.984 31.6094 125.484 31.6094C124.797 31.6094 124.219 31.4766 123.75 31.2109C123.297 30.9609 122.93 30.6328 122.648 30.2266C122.383 29.8203 122.195 29.375 122.086 28.8906C121.977 28.3906 121.922 27.8984 121.922 27.4141C121.922 26.9297 122.031 26.3281 122.25 25.6094C122.469 24.8906 122.789 24.2031 123.211 23.5469C123.648 22.875 124.195 22.3047 124.852 21.8359C125.508 21.3516 126.281 21.1094 127.172 21.1094C127.672 21.1094 128.094 21.2812 128.438 21.625C128.797 21.9688 128.969 22.4375 128.953 23.0312C128.953 23.3125 128.906 23.5938 128.812 23.875C128.719 24.1406 128.594 24.3828 128.438 24.6016C128.281 24.8047 128.094 24.9688 127.875 25.0938C127.672 25.2188 127.445 25.2812 127.195 25.2812C126.992 25.2812 126.836 25.2109 126.727 25.0703C126.633 24.9141 126.57 24.7422 126.539 24.5547C126.523 24.3516 126.523 24.1562 126.539 23.9688C126.57 23.7812 126.602 23.6562 126.633 23.5938C126.711 23.4844 126.797 23.4062 126.891 23.3594C126.984 23.3125 127.094 23.2578 127.219 23.1953C127.312 23.1484 127.383 23.0781 127.43 22.9844C127.492 22.8906 127.523 22.7891 127.523 22.6797C127.523 22.5703 127.492 22.4766 127.43 22.3984C127.367 22.3203 127.266 22.2812 127.125 22.2812C126.984 22.2812 126.727 22.3984 126.352 22.6328C125.992 22.8516 125.617 23.1875 125.227 23.6406C124.852 24.0781 124.516 24.6328 124.219 25.3047C123.922 25.9766 123.766 26.7578 123.75 27.6484C123.734 28.1641 123.805 28.5859 123.961 28.9141C124.117 29.2422 124.312 29.5 124.547 29.6875C124.781 29.875 125.039 30.0078 125.32 30.0859C125.602 30.1641 125.875 30.2031 126.141 30.2031ZM137.812 27.2734C137.656 27.8672 137.445 28.4219 137.18 28.9375C136.914 29.4531 136.594 29.8984 136.219 30.2734C135.859 30.6484 135.445 30.9375 134.977 31.1406C134.523 31.3594 134.023 31.4688 133.477 31.4688C132.836 31.4688 132.328 31.3281 131.953 31.0469C131.594 30.7812 131.32 30.4453 131.133 30.0391C130.961 29.6328 130.859 29.1875 130.828 28.7031C130.781 28.2188 130.758 27.7656 130.758 27.3438C130.758 27.0469 130.797 26.7188 130.875 26.3594C130.938 26 131.031 25.6328 131.156 25.2578C131.281 24.8828 131.438 24.5078 131.625 24.1328C131.828 23.7578 132.062 23.4141 132.328 23.1016C132.422 22.8359 132.562 22.6016 132.75 22.3984C132.953 22.1953 133.18 22.0312 133.43 21.9062C133.695 21.7656 133.977 21.6641 134.273 21.6016C134.57 21.5234 134.859 21.4844 135.141 21.4844C135.188 21.4844 135.227 21.4922 135.258 21.5078C135.305 21.5234 135.352 21.5391 135.398 21.5547C135.602 21.5703 135.852 21.6484 136.148 21.7891C136.461 21.9297 136.758 22.1406 137.039 22.4219C137.336 22.7031 137.586 23.0625 137.789 23.5C137.992 23.9219 138.094 24.4375 138.094 25.0469C138.094 25.1719 138.086 25.3281 138.07 25.5156C138.055 25.6875 138.039 25.8359 138.023 25.9609C138.383 25.8203 138.758 25.6484 139.148 25.4453C139.539 25.2422 139.914 25.0312 140.273 24.8125C140.648 24.5781 140.992 24.3438 141.305 24.1094C141.617 23.875 141.867 23.6641 142.055 23.4766C142.211 23.3359 142.344 23.2578 142.453 23.2422C142.562 23.2266 142.641 23.2578 142.688 23.3359C142.734 23.4141 142.742 23.5234 142.711 23.6641C142.68 23.8047 142.594 23.9609 142.453 24.1328C142.375 24.2266 142.172 24.4141 141.844 24.6953C141.531 24.9766 141.156 25.2812 140.719 25.6094C140.281 25.9375 139.805 26.2578 139.289 26.5703C138.773 26.8828 138.281 27.1172 137.812 27.2734ZM133.852 23.7109C133.805 23.8516 133.781 24 133.781 24.1562C133.781 24.4062 133.797 24.6719 133.828 24.9531C133.859 25.2188 133.938 25.4609 134.062 25.6797C134.188 25.8984 134.383 26.0859 134.648 26.2422C134.93 26.3828 135.312 26.4531 135.797 26.4531C135.875 26.4531 135.953 26.4531 136.031 26.4531C136.109 26.4375 136.188 26.4219 136.266 26.4062C136.312 26.2031 136.352 26.0234 136.383 25.8672C136.43 25.6953 136.453 25.5469 136.453 25.4219C136.484 25.125 136.484 24.8203 136.453 24.5078C136.422 24.1953 136.359 23.9141 136.266 23.6641C136.188 23.3984 136.078 23.1875 135.938 23.0312C135.812 22.8594 135.656 22.7734 135.469 22.7734C135.172 22.7734 134.883 22.8594 134.602 23.0312C134.336 23.1875 134.086 23.4141 133.852 23.7109ZM132.352 27.8359C132.352 28.1172 132.367 28.3984 132.398 28.6797C132.43 28.9453 132.492 29.1875 132.586 29.4062C132.68 29.6094 132.805 29.7812 132.961 29.9219C133.117 30.0469 133.32 30.1094 133.57 30.1094C133.852 30.1094 134.109 30.0469 134.344 29.9219C134.578 29.7812 134.789 29.6094 134.977 29.4062C135.164 29.1875 135.328 28.9453 135.469 28.6797C135.625 28.3984 135.758 28.1094 135.867 27.8125C135.758 27.8281 135.648 27.8438 135.539 27.8594C135.445 27.8594 135.336 27.8594 135.211 27.8594C134.617 27.8594 134.102 27.6875 133.664 27.3438C133.242 26.9844 132.914 26.5312 132.68 25.9844C132.586 26.3125 132.508 26.6328 132.445 26.9453C132.383 27.2578 132.352 27.5547 132.352 27.8359ZM147.281 31.5859C146.922 31.5859 146.609 31.5156 146.344 31.375C146.094 31.25 145.891 31.0781 145.734 30.8594C145.578 30.6406 145.477 30.3906 145.43 30.1094C145.383 29.8125 145.398 29.5 145.477 29.1719C145.523 28.9531 145.602 28.6641 145.711 28.3047C145.82 27.9297 145.93 27.5312 146.039 27.1094C146.164 26.6719 146.273 26.2422 146.367 25.8203C146.477 25.3828 146.547 24.9922 146.578 24.6484C146.609 24.2891 146.594 24 146.531 23.7812C146.469 23.5469 146.336 23.4297 146.133 23.4297C145.883 23.4297 145.625 23.5156 145.359 23.6875C145.094 23.8438 144.82 24.0625 144.539 24.3438C144.273 24.625 144 24.9531 143.719 25.3281C143.453 25.6875 143.188 26.0625 142.922 26.4531C142.781 26.9844 142.664 27.4531 142.57 27.8594C142.477 28.25 142.391 28.6094 142.312 28.9375C142.25 29.25 142.188 29.5312 142.125 29.7812C142.062 30.0156 142.008 30.2422 141.961 30.4609C141.914 30.6172 141.773 30.7734 141.539 30.9297C141.305 31.0703 141.055 31.1875 140.789 31.2812C140.523 31.375 140.297 31.4219 140.109 31.4219C139.906 31.4219 139.82 31.3516 139.852 31.2109C139.867 31.1172 139.922 30.9062 140.016 30.5781C140.094 30.25 140.195 29.8672 140.32 29.4297C140.43 28.9766 140.547 28.5 140.672 28C140.797 27.5 140.914 27.0234 141.023 26.5703C141.102 26.2109 141.188 25.8125 141.281 25.375C141.359 25 141.453 24.5625 141.562 24.0625C141.688 23.5625 141.828 23.0156 141.984 22.4219C142.094 22.3281 142.203 22.2578 142.312 22.2109C142.438 22.1484 142.562 22.1016 142.688 22.0703C142.812 22.0234 142.945 21.9922 143.086 21.9766C143.211 21.9766 143.336 21.9844 143.461 22C143.57 22.0156 143.68 22.0469 143.789 22.0938C143.914 22.125 144.023 22.1797 144.117 22.2578C144.07 22.3672 144.016 22.5234 143.953 22.7266C143.891 22.9141 143.828 23.1172 143.766 23.3359C143.703 23.5859 143.625 23.8438 143.531 24.1094C143.734 23.8281 143.961 23.5469 144.211 23.2656C144.477 22.9688 144.758 22.7031 145.055 22.4688C145.367 22.2344 145.695 22.0469 146.039 21.9062C146.383 21.75 146.734 21.6719 147.094 21.6719C147.391 21.6719 147.656 21.7578 147.891 21.9297C148.125 22.1016 148.305 22.3438 148.43 22.6562C148.57 22.9531 148.648 23.3125 148.664 23.7344C148.695 24.1562 148.641 24.6172 148.5 25.1172L148.242 26.1484C148.164 26.4766 148.062 26.8672 147.938 27.3203C147.828 27.7578 147.688 28.2422 147.516 28.7734C147.422 29.1172 147.383 29.4141 147.398 29.6641C147.43 29.9141 147.586 30.0391 147.867 30.0391C148.148 30.0391 148.5 29.8672 148.922 29.5234C149.359 29.1797 149.797 28.7656 150.234 28.2812C150.672 27.7969 151.086 27.3047 151.477 26.8047C151.867 26.2891 152.164 25.875 152.367 25.5625C152.508 25.3594 152.641 25.2266 152.766 25.1641C152.891 25.1016 152.984 25.0938 153.047 25.1406C153.125 25.1875 153.164 25.2969 153.164 25.4688C153.164 25.625 153.102 25.8281 152.977 26.0781C152.867 26.2969 152.695 26.5859 152.461 26.9453C152.242 27.3047 151.977 27.6875 151.664 28.0938C151.352 28.5 151.016 28.9141 150.656 29.3359C150.297 29.7422 149.922 30.1172 149.531 30.4609C149.141 30.7891 148.75 31.0547 148.359 31.2578C147.984 31.4766 147.625 31.5859 147.281 31.5859Z" fill="#003578"/>
</svg>
